<?xml version="1.0" encoding="UTF-8"?>
<svg width="307px" height="322px" viewBox="0 0 307 322" version="1.1" xmlns="http://www.w3.org/2000/svg" xmlns:xlink="http://www.w3.org/1999/xlink">
    <title>Artboard 1 Copy 2</title>
    <defs>
        <path d="M0,0 L306,0 L306,321 L0,321 L0,0 Z" id="path-1"></path>
        <polygon id="path-2" points="0 0 306 0 306 320.99997 0 320.99997"></polygon>
    </defs>
    <g id="Artboard-1-Copy-2" stroke="none" fill="none" transform="translate(0.053, 0.772)" xlink:href="#path-1" fill-rule="evenodd">
        <g id="Group-3" stroke-width="1" transform="translate(0, 0)">
            <mask id="mask-3" fill="white">
                <use xlink:href="#path-2"></use>
            </mask>
            <g id="Clip-2"></g>
            <path d="M121.102256,259.495686 L113.985415,261.488629 L101.372613,263.668667 C101.507504,268.912792 102.523569,274.093459 102.881631,279.315155 C103.651494,290.547408 102.604174,302.428476 104.744325,313.543659 C105.455516,317.235773 106.15903,317.686551 110.04508,317.652633 C110.346664,310.772796 111.67528,303.985411 112.697376,297.184898 C112.913969,295.741751 112.836654,293.941921 113.064213,292.481268 C114.806821,281.302627 117.736575,270.264032 121.102256,259.495686 L121.102256,259.495686 Z M45.4736969,242.499599 L32.0241357,236.233017 C29.8521807,247.689019 29.4063843,259.374786 28.1748239,270.955517 L33.5145103,273.213238 C33.4640634,270.028249 34.5925369,266.583407 35.6804336,263.590984 C37.8403252,257.649903 40.9685765,251.759152 43.3302554,245.872777 L45.4736969,242.499599 Z M274.154622,225.794549 L258.632902,229.516204 C260.466535,235.25706 261.966779,241.106235 263.608494,246.904533 C263.88979,247.898543 264.438673,248.892553 264.743548,249.947833 C267.223119,258.531218 268.616438,267.465269 273.334312,275.225327 L278.340063,276.493415 L276.51301,259.976553 L275.681186,256.333127 L274.144203,239.077186 L274.154622,225.794549 Z M289.998213,152.72527 C279.557366,155.613751 269.17574,158.842504 258.676769,161.587109 C231.052748,168.807765 203.882199,174.327062 175.35836,176.880195 C164.177809,177.881317 153.652519,178.206818 142.482386,177.175608 C136.520888,176.624718 131.627546,173.643783 127.085687,170.02224 C127.37137,174.963841 127.655407,179.826118 127.668567,184.797807 C127.683372,190.393693 127.736013,196.423398 127.378498,202.080007 C127.213998,204.686752 126.361337,207.424792 126.4721,210.088431 C126.624537,210.709345 132.487884,211.389342 133.512722,211.474683 C143.783585,212.32591 154.974006,209.18961 165.237193,207.641428 C179.622213,205.47069 194.497994,204.310374 208.390062,200.291665 C219.995024,196.934352 232.688431,195.906972 244.618556,193.788205 C255.547421,191.847233 266.395133,189.369048 277.307,187.331793 C290.0684,180.665309 290.300894,165.388087 289.998213,152.72527 L289.998213,152.72527 Z M286.113808,150.038107 C286.402781,149.729564 284.926663,148.092758 284.626724,147.796251 C275.214553,138.503328 246.733484,129.344435 233.570154,126.85859 C220.388728,124.369464 207.138213,124.508417 193.881665,124.975607 C188.806825,125.154496 184.261128,125.784163 179.242765,126.178047 C174.783705,126.528166 170.257748,126.3821 165.795946,126.779267 C155.688487,127.678635 143.90367,130.067102 133.947552,132.28434 C130.042858,133.154167 126.222608,134.498843 122.298174,135.129604 C123.496286,140.208517 124.965824,145.631531 125.549252,150.82478 C126.076751,155.519109 125.463712,160.33598 126.644826,164.941686 C131.243712,169.070901 136.014226,173.124075 142.480741,173.598377 C153.878981,174.433739 165.435141,174.503216 176.816383,173.26467 C182.312345,172.666732 187.680545,171.66944 193.283432,171.203345 C215.513482,169.352638 234.426653,163.636399 255.79472,158.114913 C264.055936,155.980282 272.909353,154.504859 281.040613,151.987284 C282.783221,151.447882 284.323494,150.409014 286.113808,150.038107 L286.113808,150.038107 Z M98.0831516,259.195897 C97.5402999,257.238513 98.1303084,255.304106 98.1006983,253.394864 C97.990483,246.252437 97.0731185,238.538332 96.5889387,231.313846 C95.4209851,213.891598 94.0600176,196.432698 93.0094077,179.113845 C92.793912,175.563967 92.9677342,171.943518 92.7028884,168.384887 C91.8200691,156.545396 87.6176295,141.826176 83.0691906,130.874564 C79.8192089,123.051047 73.3548874,118.4344 66.3625193,114.139425 C47.6631987,107.024899 28.1879839,101.867209 8.4682118,98.2341776 C7.92261846,98.1340655 5.71886004,97.6925873 5.45182088,97.8829645 C4.86894076,99.9448369 3.71524389,102.185598 3.34840777,104.283577 C1.38317507,115.513095 3.25738416,128.934686 3.93567457,140.335435 C5.36628062,164.386966 6.684478,188.481168 8.41008829,212.518475 C8.5762338,214.830902 9.02477184,217.157005 9.05273693,219.484201 C15.2198608,223.106291 21.4697833,226.539645 27.8244378,229.832952 C44.3457718,238.396643 61.5064644,245.587211 78.8755244,252.266824 C85.2208572,254.706715 91.6983387,256.868153 98.0831516,259.195897 L98.0831516,259.195897 Z M118.69671,256.795394 C119.132636,246.741509 121.202601,236.85229 122.013588,226.849829 C122.985238,214.861537 123.733167,202.779151 124.080811,190.737794 C124.576506,173.5847 122.580018,157.979789 118.966491,141.287321 C116.927781,131.870762 113.641609,122.19435 107.34453,114.707822 C102.322878,108.737746 87.462999,102.877083 79.9168126,100.31848 C63.8719817,94.8774121 46.4376699,90.9440445 29.4787646,89.7990461 C24.0272178,89.4308741 18.4468124,89.0566845 13.1252211,90.4768545 C10.1921771,91.2596986 8.96884167,92.2083021 6.91752038,94.4277281 L7.85681826,95.2658253 C17.0293664,96.4283297 25.9716138,98.6723734 34.9451163,100.748469 C48.7001002,103.929628 73.6394733,108.495945 81.7137064,120.893439 C88.4510987,131.237813 92.0306297,148.885449 95.0124755,161.010506 C96.4704983,166.941193 95.9660301,172.775597 96.2813227,178.832108 C96.8049827,188.89584 97.4914981,199.070078 98.09028,209.237204 C98.8908491,222.839873 99.9716174,236.490136 100.76451,250.112498 C100.937235,253.087415 101.766318,256.102815 101.377548,259.195897 L118.69671,256.795394 Z M121.703231,255.319424 C135.339226,252.566613 148.802495,249.071989 162.34637,245.914353 C184.018763,240.861152 205.590811,235.46932 227.461702,231.248745 C246.673716,227.541314 265.662557,223.49744 284.623434,218.490192 C288.229285,217.538306 293.808045,216.368143 296.584814,214.021252 C300.132541,211.022264 301.955755,204.516616 301.983172,199.994064 C302.101064,180.672421 300.905145,161.451437 299.852342,142.149489 C299.344584,132.841795 298.115217,124.130945 297.476406,114.994481 C297.09312,109.517855 297.527402,103.379285 296.563429,98.0109768 C296.134631,95.6246973 286.919861,88.2869698 284.592179,86.6917403 C279.714739,83.3491984 274.013699,81.4180736 268.189285,80.3901462 C248.959176,76.9961806 228.679554,74.7209544 209.151699,73.9769516 C205.335835,73.8314334 201.44485,73.9829693 197.632277,74.1399758 C196.321756,74.9271964 194.639464,81.8365751 194.239728,83.5800581 C191.519438,95.4447142 190.551078,106.405079 191.953719,118.572807 C192.016778,119.118773 192.396774,121.843684 192.590885,121.964584 C203.415018,121.971149 214.205154,121.851342 224.979937,122.902793 C236.004761,123.979409 245.293556,125.733833 255.7026,129.53153 C267.189122,133.722016 278.274811,138.773576 288.070268,146.150145 C293.063954,152.111467 293.045859,159.415277 292.687248,166.888128 C291.469945,192.267923 270.094201,192.290353 250.427617,195.4086 C227.910788,198.978172 205.963679,204.866735 183.392565,208.158947 C175.982914,209.239393 168.471821,209.90243 161.049558,210.919417 C152.212591,212.130609 137.10322,216.008177 128.741659,213.550779 C127.872,213.295302 127.273218,212.754806 126.488002,212.37241 C126.012047,214.374106 126.394237,216.479196 126.180934,218.481439 C125.345272,226.326292 123.879024,234.191386 122.895859,242.046086 C122.342589,246.467432 121.379713,250.830789 121.703231,255.319424 L121.703231,255.319424 Z M31.1248663,85.6167657 C29.4464128,82.4503774 27.0414154,79.3939484 25.482499,76.1898128 C19.8861918,64.6834816 15.3602346,47.8236127 14.388585,35.0661532 C14.1423825,31.8363059 14.2098277,30.7536724 13.5589541,27.5429722 C13.1915696,25.7311066 13.1723779,23.9159586 13.3407167,22.0969812 C10.8693708,24.2677187 9.15692058,27.2333357 8.18033592,30.3690886 C3.70208385,44.7496777 6.86378355,70.0195133 16.1783504,82.1916176 C16.9098294,83.14788 19.7831048,86.508475 20.7975246,86.5319986 L31.1248663,85.6167657 Z M188.662064,122.003972 C188.029286,120.327778 188.381865,118.688783 188.37693,117.096836 C188.32758,101.890732 187.517141,85.8864667 193.689748,71.6978961 C194.017652,70.9440462 194.817125,70.2470906 194.933372,69.6590002 C195.225634,68.1759182 193.217632,59.3414322 192.713163,57.272448 C189.352418,43.5001906 181.805135,24.0084119 172.677002,13.1405007 C169.745055,9.64915821 160.73591,5.05329986 156.22421,4.50350368 C145.599671,3.20861061 135.127569,4.78031648 124.554024,5.10800594 C122.186862,5.1813121 120.019294,4.75241638 117.66913,4.8011048 C99.7544767,5.17091794 79.3405125,9.01073818 61.4653393,11.3570822 C49.933854,12.8707997 35.9754378,13.3686251 24.9818691,16.711167 C24.1193381,16.9732091 17.7279452,19.6527133 17.5190296,20.0022852 C17.0820065,22.3125232 17.1214867,24.6462849 17.4099109,26.9816877 C18.2110283,33.4561531 19.4941323,41.0816345 20.7580445,47.5002997 C23.3895042,60.8688262 28.3892229,73.9495986 35.59928,85.4821888 L49.7781268,86.8438233 C73.8593557,94.3768514 100.344485,97.0941028 115.368865,119.824482 C117.727254,123.392413 119.186921,127.364622 120.97888,131.227419 C122.756034,130.543593 124.674658,130.59994 126.551609,130.273892 C146.273574,126.846555 166.128237,123.711349 186.133692,122.316344 C186.985804,122.256714 187.795147,121.925743 188.662064,122.003972 L188.662064,122.003972 Z M197.330144,69.2186162 C201.587966,69.2065809 205.815629,69.791936 210.038905,70.1092313 C227.496247,71.418895 245.023776,72.4118105 262.310585,75.220421 C273.809719,77.0886339 283.768579,79.7260143 293.260807,86.6917403 C302.46461,93.4452068 301.290625,96.9879729 301.959045,107.539683 C303.231731,127.645811 303.612275,147.940128 304.336626,168.096039 C304.767617,172.818268 304.765972,177.634045 304.949664,182.39621 C305.388881,193.783829 308.637217,207.155091 300.914467,216.551408 C296.351771,222.103529 293.440112,221.489727 287.007594,222.956944 C283.711004,223.709153 280.351904,224.366173 277.132629,225.393553 L278.642744,248.905135 C279.602878,255.257059 280.249365,261.595853 281.068578,267.958171 C281.79238,273.584145 285.112548,280.721648 275.831978,279.743503 C271.141521,279.249507 269.060041,275.78333 267.437518,271.715932 C263.796025,262.588221 260.679837,249.604826 258.099372,239.874801 C257.236841,236.623071 256.370472,233.296394 255.921386,229.966982 L124.081908,259.096879 C123.586761,266.421477 120.921305,273.354926 119.212693,280.422953 C117.113667,289.104809 115.440696,298.16906 114.528815,307.064817 C114.180074,310.466442 114.44163,315.485178 113.79624,318.561848 C113.2331,321.249011 110.379016,321.077781 108.103974,320.928434 C102.801574,320.579956 102.544405,318.171247 101.468024,313.531624 C100.669648,310.08897 100.045094,305.827365 99.8674337,302.304293 C99.3037453,291.107599 99.6234247,279.275219 99.2944236,267.981695 C99.2527502,266.550036 98.5788465,265.19989 99.2834569,263.671949 C95.4867853,262.695992 91.6051217,261.908225 87.9279871,260.532914 C76.8565548,256.393304 65.6831322,251.730157 54.837614,247.021604 C53.8626743,246.598179 47.7333855,242.955848 47.2711391,243.388573 C46.1042822,246.901798 44.0348659,250.056151 42.6470299,253.541476 C41.2213589,257.120348 39.6882142,261.544429 38.5136806,265.225055 C37.664858,267.884318 36.7535252,274.341277 34.8162576,275.851712 C34.2547625,276.289908 33.8237712,276.545385 33.0785839,276.519674 C32.7523246,276.508185 27.4345716,274.49336 26.9641002,274.234053 C24.0233795,272.614753 24.4203741,266.100352 24.5525228,263.225547 C24.7543101,258.834837 25.5932626,253.917854 26.4300219,249.590602 C27.3983815,244.584995 28.7269973,239.612212 30.2255969,234.753217 C26.3285799,233.53163 23.1838786,230.959897 19.6674061,229.023849 C17.2004469,227.665497 14.4022933,225.980549 12.010456,224.733251 C10.3972544,223.891871 8.28835792,223.766047 7.07927921,222.197076 C5.69089495,220.394511 5.05372966,215.734646 4.82397729,213.412373 C4.06398496,205.736015 4.1539119,197.86545 3.62093027,190.156815 C2.49739182,173.901449 0.695014631,157.510411 0.323791826,141.254497 C0.178483047,134.893821 0.400010393,128.506885 0.348466902,122.142379 C0.289795055,114.917893 -1.49558375,99.5460296 3.62093027,93.8188493 C4.62438335,92.6951863 10.1839521,89.1108435 11.6831,88.4417881 C13.5085073,87.6266674 15.1688657,87.6091614 16.8495125,87.0347475 C17.1033916,86.9477648 17.3748174,86.8202996 17.3742691,86.5194162 C16.1860271,86.086144 15.0641337,84.5346793 14.2602746,83.5089402 C4.16213693,70.6256568 0.0819760847,43.5379378 5.78685358,28.278769 C10.9406544,14.4922881 27.0529305,12.1990089 39.5697738,10.0906363 C57.9170634,7.00028949 76.5626473,3.25948727 95.2493562,2.11613005 C101.4099,1.73920511 107.629116,1.84861729 113.792401,1.52913374 C124.793099,0.958549255 135.323324,-0.132290117 146.376113,0.0132280742 C156.897017,0.152181535 172.870564,0.0586341263 178.745426,10.6650502 C186.220877,24.1599478 193.10961,44.3114819 195.87925,59.4820269 C196.469807,62.7146095 197.468873,65.9149156 197.330144,69.2186162 L197.330144,69.2186162 Z" id="Fill-1" fill="#000000" mask="url(#mask-3)"></path>
        </g>
        <path d="M188.662229,122.003874 C187.795311,121.925644 186.985969,122.256616 186.133856,122.316245 C166.128401,123.711251 146.273191,126.846457 126.551225,130.273793 C124.674823,130.599841 122.756198,130.543494 120.979045,131.22732 C119.187086,127.36507 117.727418,123.392314 115.369029,119.824383 C100.34465,97.0945512 73.8595202,94.3767528 49.7782913,86.8442717 L35.5994445,85.4820901 C28.3893874,73.9495 23.3896687,60.8687275 20.7576607,47.5007482 C19.4942968,41.0815359 18.2106445,33.4560545 17.4100754,26.9815891 C17.1211028,24.6467333 17.082171,22.3129716 17.5191941,20.0021865 C17.7281097,19.6526146 24.1195026,16.9731105 24.9814853,16.7110684 C35.975054,13.3685264 49.9334701,12.8707011 61.4655038,11.3569836 C79.3401286,9.01063957 99.7546412,5.17081933 117.668746,4.80100618 C120.019458,4.75231777 122.187027,5.18121349 124.554189,5.10790733 C135.127733,4.78076493 145.599835,3.20851199 156.224374,4.50340507 C160.735527,5.05320124 169.744671,9.64960666 172.677167,13.1409491 C181.805299,24.0083133 189.352034,43.5006391 192.713328,57.2728965 C193.217796,59.3413336 195.225799,68.1763666 194.933536,69.6589016 C194.817289,70.2475391 194.017817,70.9439476 193.689913,71.6977974 C187.517305,85.8863681 188.327196,101.890634 188.376546,117.096738 C188.38203,118.688685 188.02945,120.327679 188.662229,122.003874" id="Fill-4" fill="#4981D8"></path>
        <path d="M121.70334,255.319653 C121.379274,250.831019 122.342699,246.467661 122.895969,242.045768 C123.878585,234.191615 125.344833,226.325974 126.181044,218.481669 C126.394346,216.479426 126.011609,214.373788 126.487563,212.37264 C127.272779,212.755035 127.872109,213.295531 128.741769,213.551009 C137.102781,216.007859 152.212701,212.130839 161.049668,210.919646 C168.47193,209.902113 175.983023,209.239622 183.392675,208.15863 C205.963789,204.866965 227.910898,198.978401 250.427727,195.408282 C270.09431,192.290582 291.470054,192.268153 292.687358,166.887811 C293.045969,159.415507 293.064064,152.111697 288.070377,146.149828 C278.27492,138.773806 267.189231,133.722246 255.70271,129.53176 C245.293666,125.734063 236.004871,123.979092 224.980047,122.903023 C214.205264,121.851025 203.415128,121.970831 192.590994,121.964814 C192.396884,121.843913 192.016888,119.119003 191.953829,118.573036 C190.551188,106.405308 191.519548,95.4443968 194.239838,83.5802877 C194.639574,81.8368048 196.321866,74.9268789 197.632387,74.1402054 C201.44496,73.9826519 205.335945,73.8316631 209.151809,73.9766342 C228.679663,74.721184 248.959286,76.9964102 268.189395,80.3903758 C274.013809,81.4183032 279.714848,83.348881 284.59174,86.6914229 C286.91997,88.2871995 296.13474,95.6249269 296.56299,98.0106593 C297.527511,103.378968 297.09323,109.518085 297.475968,114.994164 C298.115326,124.131175 299.344693,132.842025 299.852452,142.149171 C300.905255,161.451667 302.101174,180.672104 301.983282,199.994294 C301.955316,204.516299 300.132651,211.021947 296.584923,214.020934 C293.808155,216.368372 288.229394,217.537989 284.623543,218.490421 C265.662118,223.49767 246.673277,227.541544 227.461263,231.248975 C205.590921,235.46955 184.018873,240.860835 162.34648,245.914036 C148.802605,249.072218 135.339336,252.566296 121.70334,255.319653" id="Fill-6" fill="#4981D8"></path>
        <path d="M98.0833709,259.196181 C91.698558,256.868437 85.2205282,254.707 78.8757437,252.266561 C61.5061354,245.587495 44.3459912,238.39638 27.8241088,229.833236 C21.4700027,226.539383 15.2195318,223.106029 9.05240793,219.483939 C9.02444284,217.156742 8.57645313,214.831186 8.41030762,212.51876 C6.68469733,188.481452 5.36649996,164.38725 3.93534557,140.335172 C3.25705515,128.934424 1.38339441,115.513379 3.34807877,104.283314 C3.71546323,102.185336 4.86861176,99.9445742 5.45204022,97.8827018 C5.71907937,97.6928717 7.92283779,98.1338027 8.46843113,98.2344619 C28.1882033,101.867493 47.663418,107.025183 66.3627387,114.139163 C73.3551068,118.434685 79.8194283,123.050784 83.0688616,130.874849 C87.6173005,141.82646 91.8202884,156.545133 92.7025594,168.385171 C92.9679536,171.943255 92.7941314,175.564251 93.009627,179.114129 C94.0596886,196.432435 95.4212044,213.891883 96.5886097,231.313583 C97.0733378,238.538069 97.9907023,246.252174 98.1003693,253.394601 C98.1299794,255.30439 97.5399709,257.23825 98.0833709,259.196181" id="Fill-8" fill="#4981D8"></path>
        <path d="M286.114082,150.038008 C284.32322,150.409462 282.783495,151.447784 281.040338,151.987186 C272.909079,154.50476 264.05621,155.980183 255.794446,158.114815 C234.426379,163.636847 215.513756,169.352539 193.283706,171.203246 C187.680819,171.669342 182.312071,172.666634 176.816109,173.264571 C165.435416,174.503664 153.879255,174.434187 142.480467,173.598278 C136.0145,173.123977 131.243437,169.07135 126.644552,164.942134 C125.463986,160.336429 126.076477,155.519011 125.549527,150.824681 C124.966098,145.631433 123.496012,140.208418 122.298448,135.129505 C126.222334,134.499291 130.042584,133.154068 133.947277,132.284789 C143.903396,130.067004 155.688761,127.678536 165.795672,126.779168 C170.258022,126.382549 174.783431,126.528067 179.24304,126.177948 C184.261402,125.784064 188.806551,125.154944 193.881391,124.976055 C207.138487,124.508865 220.388454,124.369365 233.570428,126.858492 C246.73321,129.344336 275.214827,138.50323 284.626449,147.796153 C284.926937,148.092659 286.403055,149.729466 286.114082,150.038008" id="Fill-10" fill="#4981D8"></path>
        <path d="M289.998488,152.725499 C290.301169,165.388317 290.068674,180.665539 277.307274,187.332023 C266.394859,189.369277 255.547147,191.846916 244.618282,193.788435 C232.688157,195.907202 219.99475,196.934582 208.389787,200.291895 C194.498268,204.310604 179.621939,205.47092 165.236918,207.64111 C154.973732,209.18984 143.783859,212.32614 133.512996,211.474366 C132.488158,211.389571 126.624263,210.709028 126.472374,210.088661 C126.361062,207.424474 127.213723,204.686435 127.378772,202.080237 C127.736287,196.423627 127.683098,190.393375 127.668293,184.79749 C127.655133,179.826348 127.371096,174.964071 127.085961,170.02247 C131.627272,173.644013 136.521162,176.624947 142.48266,177.175291 C153.652793,178.207047 164.177535,177.881546 175.358634,176.880425 C203.881925,174.326745 231.052474,168.807995 258.676495,161.586791 C269.175465,158.842734 279.557641,155.613433 289.998488,152.725499" id="Fill-12" fill="#4981D8"></path>
        <path d="M118.696545,256.79535 L101.377384,259.195853 C101.766153,256.102771 100.937619,253.087371 100.764345,250.112454 C99.9720012,236.490639 98.8912329,222.840376 98.0901155,209.23716 C97.491882,199.070034 96.8048182,188.895796 96.2811582,178.832064 C95.9664139,172.775554 96.4703338,166.941149 95.012311,161.01101 C92.0310135,148.885405 88.4509342,131.237769 81.7140902,120.893395 C73.6393088,108.495901 48.6999357,103.930131 34.9455002,100.748425 C25.9714493,98.6723295 17.0292019,96.4282858 7.85665376,95.2657814 L6.91735588,94.4282312 C8.96867717,92.2082582 10.1925609,91.2596547 13.1256049,90.4768106 C18.4466479,89.0566406 24.0270533,89.4308302 29.4786001,89.7990022 C46.4375054,90.9445476 63.8718172,94.8773682 79.9171964,100.318436 C87.4628345,102.877039 102.323262,108.737702 107.344365,114.707778 C113.641445,122.194853 116.928165,131.871265 118.966326,141.287277 C122.579854,157.979745 124.576342,173.584657 124.081195,190.73775 C123.733551,202.779107 122.985073,214.861493 122.013424,226.849785 C121.202436,236.852246 119.13302,246.741465 118.696545,256.79535" id="Fill-14" fill="#4981D8"></path>
        <path d="M31.1250856,85.6169407 L20.7971956,86.5321735 C19.7833242,86.5081028 16.9095004,83.1475079 16.1780214,82.1917926 C6.86400288,70.0196882 3.70230319,44.7498526 8.18000692,30.3687165 C9.15659158,27.2329636 10.8690418,24.2678937 13.3409361,22.0966091 C13.1720489,23.9155865 13.1912406,25.7312815 13.5586251,27.5431471 C14.2100471,30.7538473 14.1426019,31.8364808 14.3888043,35.0657811 C15.3604539,47.8237876 19.8858628,64.6836565 25.4827183,76.1894407 C27.0410864,79.3941233 29.4466321,82.4500053 31.1250856,85.6169407" id="Fill-16" fill="#4981D8"></path>
        <path d="M121.102256,259.495697 C117.736575,270.264043 114.806821,281.302637 113.064213,292.481279 C112.836654,293.941932 112.913969,295.741762 112.697376,297.184909 C111.67528,303.985422 110.346664,310.772806 110.04508,317.652644 C106.15903,317.686562 105.455516,317.235784 104.744325,313.54367 C102.604174,302.428487 103.651494,290.547419 102.881631,279.315165 C102.523569,274.093469 101.507504,268.912803 101.372613,263.668677 L113.985415,261.48864 L121.102256,259.495697 Z" id="Fill-18" fill="#4981D8"></path>
        <path d="M274.154731,225.79445 L274.144313,239.077088 L275.681296,256.333029 L276.51312,259.977001 L278.340172,276.493863 L273.334422,275.225776 C268.616548,267.46517 267.22268,258.531119 264.743657,249.947734 C264.438783,248.893001 263.8899,247.898444 263.608604,246.904435 C261.966889,241.106137 260.466644,235.257509 258.633012,229.516652 L274.154731,225.79445 Z" id="Fill-20" fill="#4981D8"></path>
        <path d="M45.4735324,242.499391 L43.3306392,245.873116 C40.9689603,251.759491 37.840709,257.649695 35.6802691,263.591323 C34.5923724,266.583746 33.4638989,270.028588 33.5143458,273.213577 L28.1746594,270.955856 C29.4067682,259.375125 29.8520162,247.688811 32.0239712,236.233356 L45.4735324,242.499391 Z" id="Fill-22" fill="#4981D8"></path>
    </g>
</svg>